<?xml version="1.0" encoding="utf-8"?>
<!-- Generator: Adobe Illustrator 25.0.0, SVG Export Plug-In . SVG Version: 6.00 Build 0)  -->
<svg version="1.1" id="Calque_1" xmlns="http://www.w3.org/2000/svg" xmlns:xlink="http://www.w3.org/1999/xlink" x="0px" y="0px"
	 viewBox="0 0 50 46.35" style="enable-background:new 0 0 50 46.35;" xml:space="preserve">
<style type="text/css">
	.st0{fill:#343434;}
</style>
<path class="st0" d="M10.29,19.09H0.63C0.28,19.09,0,19.38,0,19.73v25.26c0,0.35,0.28,0.63,0.63,0.63h9.66
	c0.35,0,0.63-0.28,0.63-0.63V19.73C10.93,19.38,10.64,19.09,10.29,19.09z"/>
<path class="st0" d="M43.25,16.11H33c-0.48,0-0.88-0.39-0.88-0.88V6.16c-0.74-6.19-5.26-6.37-7.43-6.08
	c-0.66,0.09-1.16,0.65-1.16,1.32v8.43c0,0.36-0.03,0.72-0.09,1.07c-1,5.89-7.32,8.47-9.72,9.24c-0.55,0.18-0.92,0.69-0.92,1.26v18.8
	c0,2.55,1.14,4.06,2.35,4.95c1.07,0.79,2.37,1.2,3.69,1.2H41.1c2.44,0,3.9-1.07,4.76-2.15c0.63-0.8,1.04-1.75,1.19-2.76l2.83-18.31
	C51.05,16.11,43.25,16.11,43.25,16.11z"/>
</svg>
