<?xml version="1.0" encoding="utf-8"?>
<!-- Generator: Adobe Illustrator 25.0.0, SVG Export Plug-In . SVG Version: 6.00 Build 0)  -->
<svg version="1.1" id="Calque_1" xmlns="http://www.w3.org/2000/svg" xmlns:xlink="http://www.w3.org/1999/xlink" x="0px" y="0px"
	 viewBox="0 0 50 45.7" style="enable-background:new 0 0 50 45.7;" xml:space="preserve">
<style type="text/css">
	.st0{fill:#343434;}
</style>
<g>
	<g>
		<path class="st0" d="M10.74,45.02H1.42C0.64,45.02,0,44.38,0,43.6V19.5c0-0.78,0.64-1.42,1.42-1.42h9.32
			c0.78,0,1.42,0.64,1.42,1.42v24.1C12.15,44.38,11.52,45.02,10.74,45.02z M1.81,43.21h8.54V19.89H1.81V43.21z"/>
	</g>
	<g>
		<path class="st0" d="M40.67,45.7H19.6c-1.46,0-2.89-0.46-4.03-1.31c-1.18-0.87-2.59-2.52-2.59-5.41V21.17
			c0-0.94,0.6-1.77,1.5-2.06h0c1.03-0.33,3.03-1.09,4.84-2.43c2.12-1.56,3.38-3.45,3.75-5.61c0.05-0.27,0.07-0.56,0.07-0.86V2.23
			c0-1.08,0.81-2,1.88-2.14c1.5-0.2,3.66-0.14,5.43,1.24c1.45,1.13,2.33,2.92,2.61,5.31l0.01,0.05v8.57h9.63
			c0.16,0,3.93,0.03,6,2.47c1.13,1.34,1.53,3.1,1.17,5.22l-2.68,17.34c-0.17,1.12-0.63,2.17-1.31,3.04
			C45.02,44.41,43.41,45.7,40.67,45.7z M15.03,20.83c-0.15,0.05-0.25,0.18-0.25,0.34v17.81c0,1.72,0.62,3.05,1.85,3.96
			c0.83,0.62,1.89,0.96,2.96,0.96h21.07c1.63,0,2.9-0.57,3.8-1.69c0.49-0.62,0.82-1.37,0.94-2.19l2.68-17.35
			c0.26-1.58,0.01-2.84-0.77-3.76c-1.52-1.81-4.6-1.84-4.63-1.84H33c-0.96,0-1.73-0.78-1.73-1.73V6.8
			c-0.23-1.87-0.88-3.24-1.92-4.05c-0.71-0.55-1.99-1.15-4.09-0.87c-0.18,0.02-0.31,0.17-0.31,0.35v7.98c0,0.41-0.03,0.8-0.09,1.17
			c-0.45,2.64-1.95,4.92-4.46,6.77C18.37,19.63,16.16,20.47,15.03,20.83L15.03,20.83z"/>
	</g>
</g>
</svg>
